<svg width="98" height="98" viewBox="0 0 98 98" fill="none" xmlns="http://www.w3.org/2000/svg">
<path d="M1.19753 28.5281C2.20359 27.5625 3.71197 27 5.30502 27H74.488L78.5889 16.0838L78.5907 16.0799C79.673 13.2397 82.6422 11.0894 86.3354 10.4686L94.7904 9.04644C96.2245 8.80628 97.6347 9.52128 97.9409 10.6449C98.2468 11.7671 97.3356 12.8747 95.903 13.1149L87.448 14.5369C85.6455 14.8392 84.1996 15.8886 83.672 17.2722L68.2178 58.9205C68.5661 59.0477 68.901 59.187 69.2256 59.3383C70.893 60.117 72.2287 61.21 73.125 62.4863C73.9807 63.7 74.4372 65.0744 74.4796 66.4923H74.488V66.7086H74.4812C74.4457 67.8148 74.1466 68.8789 73.6221 69.8484C72.7868 71.3978 71.3969 72.7098 69.6449 73.6397C67.8929 74.5683 65.7657 75.1136 63.4982 75.1122H13.7887C12.3226 75.1122 11.1356 74.1809 11.1356 73.0322C11.1356 71.8834 12.3228 70.9508 13.7887 70.9508H63.4982C64.2913 70.9508 65.0319 70.8273 65.7099 70.6019C66.7261 70.265 67.6005 69.6972 68.2144 68.9834C68.8028 68.2989 69.1477 67.4897 69.1782 66.6036C69.1477 65.5464 68.7183 64.6297 67.9642 63.8963C67.5718 63.5169 67.0914 63.1852 66.5066 62.9106C65.9282 62.64 65.2484 62.4266 64.4503 62.2911L14.4839 55.9105C11.2169 55.4927 8.62277 53.5359 7.96329 50.993L0.106812 31.993V31.9902C0.0359038 31.717 -0.00153978 31.4384 5.36678e-05 31.1625C-0.00153978 30.2116 0.416343 29.2789 1.19753 28.5281Z" fill="#231F20"/>
<path d="M57.3614 78.4977C58.5248 77.8783 59.9452 77.5159 61.4538 77.5159C62.4583 77.5159 63.4271 77.6766 64.3049 77.9684C65.6204 78.4047 66.7331 79.1317 67.5212 80.047C68.311 80.9597 68.7743 82.0739 68.7727 83.2573C68.7727 84.0453 68.5679 84.8055 68.1976 85.4939C67.6397 86.5261 66.7145 87.4002 65.5477 88.0183C64.3827 88.6364 62.9624 89.0012 61.4538 89C60.4493 89.0012 59.4819 88.8394 58.6045 88.5475C57.2871 88.1098 56.1745 87.3856 55.3866 86.4702C54.5986 85.5548 54.1351 84.4406 54.1351 83.2573C54.1351 82.4694 54.3415 81.7105 54.7101 81.0234C55.2678 79.99 56.1928 79.1172 57.3614 78.4977ZM58.7346 84.1594C58.9577 84.5719 59.3331 84.9287 59.8066 85.1781C60.2802 85.4287 60.8347 85.572 61.4536 85.5734C61.8663 85.5734 62.2483 85.5084 62.6001 85.3917C63.1277 85.218 63.5844 84.9208 63.9023 84.5508C64.22 84.1792 64.4027 83.7428 64.4045 83.2573C64.4027 82.9336 64.3216 82.6339 64.1728 82.358C63.9513 81.9441 63.5741 81.5872 63.1008 81.3378C62.6272 81.0872 62.0727 80.9439 61.4536 80.9425C61.0409 80.9439 60.6589 81.0075 60.3071 81.1242C59.7795 81.2992 59.3246 81.5937 59.0049 81.9651C58.687 82.3367 58.5045 82.7717 58.5045 83.2573C58.5045 83.5823 58.5856 83.8822 58.7346 84.1594Z" fill="#231F20"/>
<path d="M17.22 78.4977C18.385 77.8783 19.804 77.5159 21.3122 77.5159C22.3166 77.5159 23.2874 77.6766 24.1632 77.9684C25.4788 78.4047 26.5916 79.1317 27.3812 80.047C28.171 80.9597 28.6344 82.0739 28.6327 83.2573C28.6327 84.0453 28.4279 84.8055 28.056 85.4939C27.4979 86.5261 26.5745 87.4002 25.4079 88.0183C24.2411 88.6364 22.8206 89.0012 21.3122 89C20.3079 89.0012 19.3407 88.8394 18.4647 88.5475C17.1473 88.1098 16.0329 87.3856 15.2449 86.4702C14.457 85.5548 13.9937 84.4406 13.9937 83.2573C13.9937 82.4694 14.2 81.7105 14.5703 81.0234C15.1282 79.99 16.0532 79.1172 17.22 78.4977ZM18.593 84.1594C18.8162 84.5719 19.1933 84.9287 19.6652 85.1781C20.1386 85.4287 20.6933 85.572 21.312 85.5734C21.7263 85.5734 22.1103 85.5084 22.462 85.3917C22.9863 85.218 23.4428 84.9208 23.7607 84.5508C24.0786 84.1792 24.263 83.7428 24.2646 83.2573C24.2646 82.9336 24.1802 82.6339 24.033 82.358C23.8115 81.9441 23.4328 81.5872 22.9626 81.3378C22.4889 81.0872 21.931 80.9439 21.312 80.9425C20.8995 80.9439 20.5174 81.0075 20.1655 81.1242C19.6381 81.2992 19.1847 81.5937 18.8652 81.9651C18.5474 82.3367 18.3629 82.7717 18.3629 83.2573C18.3631 83.5823 18.4442 83.8822 18.593 84.1594Z" fill="#231F20"/>
</svg>
