<?xml version="1.0" encoding="UTF-8" standalone="no"?>
<!-- Uploaded to: SVG Repo, www.svgrepo.com, Generator: SVG Repo Mixer Tools -->

<svg
   fill="#000000"
   version="1.1"
   id="Layer_1"
   width="800px"
   height="800px"
   viewBox="0 0 24 24"
   enable-background="new 0 0 24 24"
   xml:space="preserve"
   sodipodi:docname="login.svg"
   inkscape:version="1.3.2 (091e20ef0f, 2023-11-25, custom)"
   xmlns:inkscape="http://www.inkscape.org/namespaces/inkscape"
   xmlns:sodipodi="http://sodipodi.sourceforge.net/DTD/sodipodi-0.dtd"
   xmlns="http://www.w3.org/2000/svg"
   xmlns:svg="http://www.w3.org/2000/svg"
   xmlns:ns="&amp;ns_sfw;"><defs
   id="defs9" /><sodipodi:namedview
   id="namedview9"
   pagecolor="#ffffff"
   bordercolor="#000000"
   borderopacity="0.25"
   inkscape:showpageshadow="2"
   inkscape:pageopacity="0.0"
   inkscape:pagecheckerboard="0"
   inkscape:deskcolor="#d1d1d1"
   inkscape:zoom="0.25998379"
   inkscape:cx="-3.8463937"
   inkscape:cy="315.40428"
   inkscape:window-width="2116"
   inkscape:window-height="1276"
   inkscape:window-x="0"
   inkscape:window-y="0"
   inkscape:window-maximized="1"
   inkscape:current-layer="g9" />
<metadata
   id="metadata1">
	<ns:sfw>
		<ns:slices>

</ns:slices>
		<ns:sliceSourceBounds
   width="505"
   height="984"
   bottomLeftOrigin="true"
   x="0"
   y="-120">

</ns:sliceSourceBounds>
	</ns:sfw>
</metadata>
<g
   id="g9">
	<g
   id="g2">
		<g
   id="g1">
			<path
   d="M15,24H1c-0.6,0-1-0.4-1-1V1c0-0.6,0.4-1,1-1h14c0.6,0,1,0.4,1,1v7c0,0.6-0.4,1-1,1s-1-0.4-1-1V2H2v20h12v-6     c0-0.6,0.4-1,1-1s1,0.4,1,1v7C16,23.6,15.6,24,15,24z"
   id="path1" />
		</g>
	</g>
	<g
   id="g4"
   transform="matrix(-1,0,0,1,31,0)">
		<g
   id="g3">
			<path
   d="M 23,13 H 8 C 7.4,13 7,12.6 7,12 7,11.4 7.4,11 8,11 h 15 c 0.6,0 1,0.4 1,1 0,0.6 -0.4,1 -1,1 z"
   id="path2" />
		</g>
	</g>
	<g
   id="g6"
   transform="matrix(-1,0,0,1,31,0)">
		<g
   id="g5">
			<path
   d="m 23,13 c -0.3,0 -0.5,-0.1 -0.7,-0.3 l -4,-4 c -0.4,-0.4 -0.4,-1 0,-1.4 0.4,-0.4 1,-0.4 1.4,0 l 4,4 c 0.4,0.4 0.4,1 0,1.4 C 23.5,12.9 23.3,13 23,13 Z"
   id="path4" />
		</g>
	</g>
	<g
   id="g8"
   transform="matrix(-1,0,0,1,31,0)">
		<g
   id="g7">
			<path
   d="m 19,17 c -0.3,0 -0.5,-0.1 -0.7,-0.3 -0.4,-0.4 -0.4,-1 0,-1.4 l 4,-4 c 0.4,-0.4 1,-0.4 1.4,0 0.4,0.4 0.4,1 0,1.4 l -4,4 C 19.5,16.9 19.3,17 19,17 Z"
   id="path6" />
		</g>
	</g>
</g>
</svg>
