<svg width="81" height="80" viewBox="0 0 81 80" fill="none" xmlns="http://www.w3.org/2000/svg">
<path d="M40.5001 38.738C51.0575 38.738 59.6161 30.0662 59.6161 19.369C59.6161 8.67181 51.0575 0 40.5001 0C29.9426 0 21.3841 8.67181 21.3841 19.369C21.3841 30.0662 29.9426 38.738 40.5001 38.738Z" fill="#231F20"/>
<path d="M63.2418 41.7362C62.9403 41.5287 62.3339 41.1296 62.3339 41.1296C57.4475 48.0034 49.4811 52.4871 40.5001 52.4871C31.5182 52.4871 23.551 48.0024 18.6647 41.1272C18.6647 41.1272 18.155 41.4653 17.9019 41.6381C7.10296 49.0082 0 61.5123 0 75.697V80H81V75.697C81 61.5751 73.9599 49.1194 63.2418 41.7362Z" fill="#231F20"/>
</svg>
