<svg width="80" height="81" viewBox="0 0 80 81" fill="none" xmlns="http://www.w3.org/2000/svg">
<rect width="80" height="66.6667" rx="9" fill="#231F20"/>
<path d="M9.72949 52.9727H45.6269L9.72949 80.6669L14.4003 67.1534L9.72949 52.9727Z" fill="#231F20"/>
<path d="M32.458 23.4199C32.0544 23.2376 32.0348 22.6777 32.3994 21.7402C32.751 20.8678 33.5192 19.9564 34.7041 19.0059C35.902 18.0423 37.6403 17.5605 39.9189 17.5605C42.7184 17.5605 44.7757 18.2311 46.0908 19.5723C47.4059 20.9004 48.0635 22.6777 48.0635 24.9043C48.0635 26.7663 46.9762 28.9017 44.8018 31.3105C42.6403 33.7064 41.5596 35.8027 41.5596 37.5996V38.0488C41.5596 38.6348 41.2666 38.9277 40.6807 38.9277H39.001C38.415 38.9277 38.1221 38.6348 38.1221 38.0488V37.3262C38.1221 35.1257 39.1377 32.8665 41.1689 30.5488C43.2132 28.2181 44.2354 26.2975 44.2354 24.7871C44.2354 23.1986 43.8643 22.0853 43.1221 21.4473C42.3799 20.8092 41.3577 20.4902 40.0557 20.4902C38.6234 20.4902 37.5426 20.7507 36.8135 21.2715C36.0973 21.7923 35.5505 22.502 35.1729 23.4004C34.8734 24.1035 34.4502 24.3314 33.9033 24.084L32.458 23.4199ZM38.7275 46.1543C38.1416 46.1543 37.8486 45.8613 37.8486 45.2754V42.8926C37.8486 42.3066 38.1416 42.0137 38.7275 42.0137H40.915C41.501 42.0137 41.7939 42.3066 41.7939 42.8926V45.2754C41.7939 45.8613 41.501 46.1543 40.915 46.1543H38.7275Z" fill="#FFE7AA"/>
</svg>
